<svg xmlns="http://www.w3.org/2000/svg" width="2093.228" height="575.87" viewBox="0 0 2093.228 575.87">
  <g id="Сгруппировать_1" data-name="Сгруппировать 1" transform="translate(-2442.398 623)" opacity="0.24">
    <path id="Контур_29" data-name="Контур 29" d="M166.142,29.428,118.414,463.31,243.4.051H344.487L168.579,567.6H19.7L53.159.051h86.675a26.467,26.467,0,0,1,26.292,29.377" transform="translate(2768.579 -621.657)" fill="none" stroke="#707070" stroke-width="1"/>
    <path id="Контур_30" data-name="Контур 30" d="M152.233,567.582H40.055L140.3.051h210.14L336.011,81.222H237.68L214.474,210.927l94.545.105-14.355,81.189H200.89Z" transform="translate(3105.034 -621.657)" fill="none" stroke="#707070" stroke-width="1"/>
    <path id="Контур_31" data-name="Контур 31" d="M230.465,189.549h61.067l-8.571,51.935q-17.528,70.111-20.876,87.253-1.613,9.64,8.028,9.64h10.166l-10.622,60.488h-29.2a35.651,35.651,0,0,1-14.022-2.4,20.069,20.069,0,0,1-9.272-8.764,116,116,0,0,1-33.846,13.269,159.191,159.191,0,0,1-37.054,4.925,99.909,99.909,0,0,1-60.7-16.038,59.6,59.6,0,0,1-23.628-50.83c0-2.839.088-5.258.263-7.221s.806-6.135,1.875-12.567l11.779-67.885A138.944,138.944,0,0,1,89.77,206.446a70.566,70.566,0,0,1,38.561-31.007,85.882,85.882,0,0,1-12.848-23.522A80.627,80.627,0,0,1,112.8,114.5a44.842,44.842,0,0,0,1.069-8.028l2.138-10.692a120.941,120.941,0,0,1,26.765-63.1A115.893,115.893,0,0,1,266.432,24.14a52.127,52.127,0,0,1,16.581,42.294,151.46,151.46,0,0,1-3.208,29.429l-2.139,10.692a91.144,91.144,0,0,1-31.55,58.35,332.248,332.248,0,0,1-46.554,25.152l20.262,54.634Zm-40.1,147.233L155.026,238.82l-13.917,72.986a73.286,73.286,0,0,0-1.613,14.373,25.415,25.415,0,0,0,5.1,16.774,19.281,19.281,0,0,0,15.775,6.117,41.926,41.926,0,0,0,29.99-12.269M186.856,81.456l-8.291,43.819v5.889a48.4,48.4,0,0,0,4.294,16.073,29.149,29.149,0,0,0,15.775-8.028,35.721,35.721,0,0,0,8.764-20.35l7.011-37.474q2.121-14.443-11.586-14.443a14.88,14.88,0,0,0-10.219,4.277,17.931,17.931,0,0,0-5.784,10.166" transform="translate(3465.206 -453.729)" fill="none" stroke="#707070" stroke-width="1"/>
    <path id="Контур_32" data-name="Контур 32" d="M229.737,26.868,181.746,463.31,306.7.051H407.8L231.892,567.6H83.029L116.472.051h89.234a24.171,24.171,0,0,1,24.03,26.817" transform="translate(3815.298 -621.657)" fill="none" stroke="#707070" stroke-width="1"/>
    <path id="Контур_33" data-name="Контур 33" d="M100.419,567.582,285.109.051H406.243A26.151,26.151,0,0,1,432.36,27.71L401.318,567.565H284.3l14.32-155.226H245.479L200.853,567.53ZM269.4,331.255H305.9L332.066,98.82h-2.927Z" transform="translate(4102.716 -621.657)" fill="none" stroke="#707070" stroke-width="1"/>
    <path id="Контур_34" data-name="Контур 34" d="M198.606,0C143.621,0,92.09,0,40.576.123,28.306.123,25.256,5.889,24.8,14.057a12.813,12.813,0,0,0,12.935,13.3H163.708A12.935,12.935,0,0,1,176.644,40.3v2A12.935,12.935,0,0,1,163.708,55.23H62.293a12.935,12.935,0,0,0-12.8,11.1v.245A12.935,12.935,0,0,0,62.31,81.346h60.138a12.935,12.935,0,0,1,12.935,12.935v3.208a12.935,12.935,0,0,1-12.935,12.935H84.132a12.935,12.935,0,0,0-12.778,14.951,84.782,84.782,0,0,1,2.84,33.531L0,568.443H112.177l73.617-416.074S203.005,63.38,211.4,15.214A12.971,12.971,0,0,0,198.606,0" transform="translate(2442.998 -622.5)" fill="none" stroke="#707070" stroke-width="1"/>
  </g>
</svg>
