<svg height="29.393" width="29.393" xmlns="http://www.w3.org/2000/svg"><g transform="translate(-3702 -6438)"><path d="m0 0h29.393v29.393h-29.393z" fill="none" transform="translate(3702 6438)"/><path d="m3707.255 6462.339h4.324v-13.008h-4.324zm2.191-19.278a2.254 2.254 0 1 0 -.057 4.5h.029a2.255 2.255 0 1 0 .029-4.5m17.726 11.819v7.459h-4.324v-6.959c0-1.748-.625-2.941-2.191-2.941a2.366 2.366 0 0 0 -2.219 1.581 2.959 2.959 0 0 0 -.143 1.054v7.264h-4.326s.058-11.786 0-13.007h4.325v1.844l-.028.042h.028v-.042a4.3 4.3 0 0 1 3.9-2.149c2.846 0 4.979 1.859 4.979 5.854" fill="#fff"/></g></svg>