<svg height="32.782" width="220.871" xmlns="http://www.w3.org/2000/svg" xmlns:xlink="http://www.w3.org/1999/xlink"><clipPath id="a"><path d="m0 0h220.871v32.782h-220.871z"/></clipPath><g fill="#161615"><path d="m136.559 15.113h-5.582l.562-9.672h5.724l-.148 2.1h-3.129l-.093 1.519h2.9l-.184 2.1h-2.885l-.106 1.826h3.085z"/><path d="m146.61 15.113h-2.778l-1.593-3.294-1.519 3.295h-2.855l2.581-5.134-2.389-4.538h2.743l1.423 3.1 1.426-3.1h2.954l-2.62 4.8z"/><path d="m151.364 15.113h-2.514l.493-7.536h-2.079l.151-2.137h6.779l-.2 2.137h-2.085z"/></g><g clip-path="url(#a)"><g fill="#161615"><path d="m157.796 11.59-.2 3.52h-2.514l.513-9.673h2.552a4.636 4.636 0 0 1 2.638.662 2.724 2.724 0 0 1 1.155 1.992 3.176 3.176 0 0 1 -.216 1.8 2.408 2.408 0 0 1 -1.209 1.171l1.927 3.414.345.635h-2.74l-1.774-3.52zm.118-1.965h.333a1.169 1.169 0 0 0 .933-.36 1.211 1.211 0 0 0 .221-1.009.957.957 0 0 0 -.316-.625 1.043 1.043 0 0 0 -.69-.215h-.348z"/><path d="m171.646 5.441-.384 6.166a3.952 3.952 0 0 1 -1.036 2.749 3.855 3.855 0 0 1 -2.763.89 3.456 3.456 0 0 1 -1.581-.364 3.23 3.23 0 0 1 -1.189-1.019 3.476 3.476 0 0 1 -.606-1.462 4.761 4.761 0 0 1 -.066-.853l.279-6.107h2.582l-.3 6.04a3.894 3.894 0 0 0 .033.761.866.866 0 0 0 .92.84.981.981 0 0 0 .886-.427 2.672 2.672 0 0 0 .322-1.306l.332-5.908z"/><path d="m178.996 12.143a2.562 2.562 0 0 1 -.665 2.286 3.51 3.51 0 0 1 -2.534.817 5.617 5.617 0 0 1 -1.359-.162 3.975 3.975 0 0 1 -1.153-.473l-.321-2.315a6.593 6.593 0 0 0 1.327.589 4.286 4.286 0 0 0 1.3.238 1 1 0 0 0 .7-.205.638.638 0 0 0 .17-.582.817.817 0 0 0 -.121-.334 1.661 1.661 0 0 0 -.261-.311q-.163-.155-.856-.685a5.258 5.258 0 0 1 -1.277-1.27 3.332 3.332 0 0 1 -.545-1.422 2.664 2.664 0 0 1 .218-1.558 2.357 2.357 0 0 1 1.074-1.072 3.69 3.69 0 0 1 1.714-.38 6.176 6.176 0 0 1 2.921.708l-.647 1.965a4.771 4.771 0 0 0 -1.98-.582.9.9 0 0 0 -.622.186.589.589 0 0 0 -.156.542 1.107 1.107 0 0 0 .3.605 5.886 5.886 0 0 0 .929.751 5.046 5.046 0 0 1 1.292 1.211 3.143 3.143 0 0 1 .55 1.455"/><path d="m181.248 15.366.192-9.852 2.577-.327-.255 9.852z"/><path d="m189.72 5.289a4.065 4.065 0 0 1 2.814.982 4.4 4.4 0 0 1 1.354 2.743 7.467 7.467 0 0 1 -.168 3.222 4.208 4.208 0 0 1 -1.437 2.236 3.955 3.955 0 0 1 -2.492.778 4.1 4.1 0 0 1 -2.836-.986 4.534 4.534 0 0 1 -1.407-2.739 7.158 7.158 0 0 1 .13-3.222 4.119 4.119 0 0 1 1.471-2.239 4.218 4.218 0 0 1 2.571-.775m1.591 3.751a2.248 2.248 0 0 0 -.5-1.181 1.251 1.251 0 0 0 -.971-.423 1.383 1.383 0 0 0 -1.1.555 3.239 3.239 0 0 0 -.621 1.529 6.03 6.03 0 0 0 0 1.991q.26 1.6 1.553 1.6a1.317 1.317 0 0 0 1.048-.551 3.171 3.171 0 0 0 .6-1.482 6.374 6.374 0 0 0 -.011-2.038"/><path d="m204.134 15.113h-2.926l-3.2-6.8h-.052a26.869 26.869 0 0 1 .176 2.765l-.028 4.036h-2.238l.039-9.672h3l3.115 6.5h.058q-.106-1.561-.092-2.454l.1-4.049h2.295z"/><path d="m135.929 29.145h-5.582l.566-9.672h5.724l-.148 2.1h-3.129l-.091 1.522h2.9l-.184 2.1h-2.885l-.106 1.826h3.085z"/><path d="m146.522 29.145h-2.926l-3.2-6.8h-.052a26.871 26.871 0 0 1 .176 2.765l-.028 4.036h-2.238l.039-9.672h3l3.115 6.5h.058q-.106-1.561-.092-2.454l.1-4.049h2.295z"/><path d="m152.365 23.482h3.979l-.318 5.26a9.825 9.825 0 0 1 -3.272.536 3.919 3.919 0 0 1 -2.767-1.006 4.79 4.79 0 0 1 -1.4-2.852 6.488 6.488 0 0 1 .2-3.189 4.081 4.081 0 0 1 1.632-2.167 5.068 5.068 0 0 1 2.82-.744 6.3 6.3 0 0 1 3.055.708l-.671 2.044a4.367 4.367 0 0 0 -2.093-.6 2.241 2.241 0 0 0 -1.458.479 2.625 2.625 0 0 0 -.839 1.419 4.841 4.841 0 0 0 -.079 2q.275 1.747 1.627 1.747a4.081 4.081 0 0 0 .846-.092l.1-1.535h-1.483z"/><path d="m158.636 29.416.11-9.86 2.572-.355-.172 9.86z"/><path d="m171.497 29.145h-2.929l-3.2-6.8h-.052a26.871 26.871 0 0 1 .176 2.765l-.028 4.036h-2.238l.039-9.672h3l3.115 6.5h.058q-.107-1.561-.092-2.454l.1-4.049h2.295z"/><path d="m179.224 29.145h-5.582l.562-9.672h5.724l-.148 2.1h-3.129l-.091 1.522h2.9l-.184 2.1h-2.885l-.106 1.826h3.085z"/><path d="m186.839 29.145h-5.582l.562-9.672h5.724l-.148 2.1h-3.126l-.091 1.522h2.9l-.184 2.1h-2.885l-.106 1.826h3.085z"/><path d="m191.615 25.626-.2 3.52h-2.514l.513-9.672h2.552a4.636 4.636 0 0 1 2.638.662 2.723 2.723 0 0 1 1.155 1.991 3.174 3.174 0 0 1 -.216 1.8 2.407 2.407 0 0 1 -1.209 1.171l1.927 3.414.345.635h-2.743l-1.77-3.521zm.118-1.965h.333a1.168 1.168 0 0 0 .933-.361 1.21 1.21 0 0 0 .221-1.009.956.956 0 0 0 -.316-.625 1.041 1.041 0 0 0 -.69-.215h-.348z"/><path d="m198.03 29.347.413-9.824 2.589-.253-.476 9.824z"/><path d="m211.047 29.145h-2.927l-3.2-6.8h-.052a26.851 26.851 0 0 1 .176 2.765l-.028 4.036h-2.238l.039-9.672h3l3.115 6.5h.058q-.107-1.561-.092-2.454l.1-4.049h2.295z"/><path d="m216.89 23.482h3.981l-.318 5.26a9.825 9.825 0 0 1 -3.272.536 3.919 3.919 0 0 1 -2.767-1.006 4.79 4.79 0 0 1 -1.4-2.852 6.488 6.488 0 0 1 .2-3.189 4.081 4.081 0 0 1 1.632-2.167 5.068 5.068 0 0 1 2.82-.744 6.3 6.3 0 0 1 3.055.708l-.671 2.044a4.367 4.367 0 0 0 -2.093-.6 2.241 2.241 0 0 0 -1.458.479 2.625 2.625 0 0 0 -.839 1.419 4.842 4.842 0 0 0 -.079 2q.275 1.747 1.627 1.747a4.081 4.081 0 0 0 .846-.092l.1-1.535h-1.487z"/></g><path d="m0 0h32.617v.881h-32.617z" fill="#ae0018" transform="matrix(.05198737 -.99864774 .99864774 .05198737 124.080529 32.6439)"/><path d="m28.053 1.727-2.723 24.754 7.131-26.43h5.767l-10.036 32.38h-8.494l1.909-32.38h4.945a1.51 1.51 0 0 1 1.5 1.676" fill="#161615"/><path d="m46.455 32.43h-6.4l5.719-32.379h11.989l-.823 4.631h-5.61l-1.324 7.4 5.394.006-.819 4.632h-5.35z" fill="#161615"/><path d="m71.467 20.443h3.484l-.489 2.963q-1 4-1.191 4.978-.092.55.458.55h.58l-.606 3.451h-1.666a2.034 2.034 0 0 1 -.8-.137 1.145 1.145 0 0 1 -.529-.5 6.618 6.618 0 0 1 -1.931.757 9.082 9.082 0 0 1 -2.114.281 5.7 5.7 0 0 1 -3.463-.915 3.4 3.4 0 0 1 -1.348-2.9c0-.162.005-.3.015-.412s.046-.35.107-.717l.672-3.873a7.927 7.927 0 0 1 .794-2.562 4.026 4.026 0 0 1 2.2-1.769 4.9 4.9 0 0 1 -.733-1.342 4.6 4.6 0 0 1 -.153-2.135 2.558 2.558 0 0 0 .061-.458l.122-.61a6.9 6.9 0 0 1 1.527-3.6 6.612 6.612 0 0 1 7.055-.487 2.974 2.974 0 0 1 .946 2.413 8.641 8.641 0 0 1 -.183 1.679l-.122.61a5.2 5.2 0 0 1 -1.8 3.329 18.956 18.956 0 0 1 -2.656 1.435l1.156 3.117zm-2.288 8.4-2.016-5.589-.794 4.164a4.18 4.18 0 0 0 -.092.82 1.45 1.45 0 0 0 .291.957 1.1 1.1 0 0 0 .9.349 2.392 2.392 0 0 0 1.711-.7m-.2-14.568-.473 2.5v.336a2.761 2.761 0 0 0 .245.917 1.663 1.663 0 0 0 .9-.458 2.038 2.038 0 0 0 .5-1.161l.4-2.138q.121-.824-.661-.824a.849.849 0 0 0 -.583.244 1.023 1.023 0 0 0 -.33.58" fill="#161615"/><path d="m91.399 1.581-2.738 24.9 7.129-26.43h5.768l-10.036 32.38h-8.493l1.908-32.38h5.091a1.379 1.379 0 0 1 1.371 1.53" fill="#161615"/><path d="m100.419 32.43 10.537-32.379h6.911a1.492 1.492 0 0 1 1.49 1.578l-1.771 30.8h-6.676l.817-8.856h-3.032l-2.546 8.854zm9.641-13.483h2.082l1.493-13.261h-.167z" fill="#161615"/><path d="m11.33 0c-3.137 0-6.077 0-9.016.007-.7 0-.874.329-.9.795a.731.731 0 0 0 .738.759h7.187a.738.738 0 0 1 .738.738v.114a.738.738 0 0 1 -.738.738h-5.786a.738.738 0 0 0 -.73.633v.014a.738.738 0 0 0 .731.843h3.431a.738.738 0 0 1 .738.738v.183a.738.738 0 0 1 -.738.738h-2.186a.738.738 0 0 0 -.729.853 4.837 4.837 0 0 1 .162 1.913l-4.233 23.365h6.4l4.2-23.738s.982-5.077 1.461-7.825a.74.74 0 0 0 -.73-.868" fill="#161615"/></g></svg>