<svg height="24" width="23.886" xmlns="http://www.w3.org/2000/svg"><path d="m0 24 1.686-6.162a11.895 11.895 0 1 1 4.619 4.509zm7.782-17.606a1.08 1.08 0 0 0 -.792.372l-.059.063a3.274 3.274 0 0 0 -.981 2.416 5.658 5.658 0 0 0 1.211 3.072l.054.077a12.86 12.86 0 0 0 5.024 4.413 17.091 17.091 0 0 0 1.694.626 3.813 3.813 0 0 0 1.152.175 4.859 4.859 0 0 0 .72-.057 3.044 3.044 0 0 0 2.006-1.413 2.466 2.466 0 0 0 .173-1.414.945.945 0 0 0 -.4-.266l-.165-.081c-.355-.177-1.765-.87-2.031-.967a.983.983 0 0 0 -.319-.077.411.411 0 0 0 -.35.226c-.194.291-.758.955-.941 1.165a.411.411 0 0 1 -.32.17.736.736 0 0 1 -.324-.1 3.305 3.305 0 0 0 -.2-.088 7.7 7.7 0 0 1 -2.195-1.387 8.847 8.847 0 0 1 -1.652-2.058c-.175-.3-.013-.463.13-.607.09-.089.194-.216.3-.339.051-.062.1-.124.151-.182a1.631 1.631 0 0 0 .258-.41l.042-.085a.549.549 0 0 0 -.025-.521c-.05-.1-.34-.8-.595-1.426-.125-.3-.241-.587-.321-.78-.22-.511-.441-.511-.587-.511h-.088z" fill="#fff"/></svg>