<svg height="29.393" width="29.393" xmlns="http://www.w3.org/2000/svg"><path d="m0 0h29.393v29.393h-29.393z" fill="none"/><g fill="#fff" transform="translate(4.35 1.08)"><path d="m18.503 18.435h-2.416v1.171q0 .931.621.931a.516.516 0 0 0 .54-.486 6.723 6.723 0 0 0 .027-.823h1.228v.178a5.979 5.979 0 0 1 -.027.783 1.635 1.635 0 0 1 -.283.729 1.645 1.645 0 0 1 -1.458.715 1.733 1.733 0 0 1 -1.458-.687 2.536 2.536 0 0 1 -.391-1.566v-2.335a2.605 2.605 0 0 1 .378-1.565 1.719 1.719 0 0 1 1.444-.688 1.7 1.7 0 0 1 1.431.688 2.676 2.676 0 0 1 .364 1.565zm-4.562 1.107a4.984 4.984 0 0 1 -.121 1.35.935.935 0 0 1 -.958.742 1.676 1.676 0 0 1 -1.259-.742v.648h-1.2v-8.948h1.2v2.928a1.627 1.627 0 0 1 1.255-.729.938.938 0 0 1 .958.756 4.819 4.819 0 0 1 .125 1.337zm-4.589 2h-1.2v-.736a1.976 1.976 0 0 1 -1.377.823.727.727 0 0 1 -.783-.5 3.34 3.34 0 0 1 -.108-.985v-5.272h1.2v4.913a3.716 3.716 0 0 0 .014.472q.04.283.283.283.364 0 .769-.567v-5.1h1.2v6.666zm-3.644-7.679h-1.444v7.676h-1.35v-7.679h-1.411v-1.268h4.211v1.269zm13.942-1.366a2.466 2.466 0 0 0 -.776-1.336 2.47 2.47 0 0 0 -1.384-.634q-2.483-.27-7.49-.27t-7.477.27a2.449 2.449 0 0 0 -1.39.634 2.563 2.563 0 0 0 -.783 1.336 23.394 23.394 0 0 0 -.347 4.724 22.911 22.911 0 0 0 .351 4.724 2.468 2.468 0 0 0 .776 1.336 2.392 2.392 0 0 0 1.383.621 72.169 72.169 0 0 0 7.49.283 72.155 72.155 0 0 0 7.488-.279 2.362 2.362 0 0 0 1.376-.626 2.561 2.561 0 0 0 .783-1.336 23.388 23.388 0 0 0 .353-4.723 22.921 22.921 0 0 0 -.351-4.724"/><path d="m12.214 15.885a.867.867 0 0 0 -.607.3v4.056a.866.866 0 0 0 .607.3q.526 0 .527-.9v-2.852q0-.9-.527-.9"/><path d="m16.695 15.885q-.607 0-.607.918v.62h1.214v-.621q0-.918-.607-.918"/><path d="m4.927 5.385v3.658h1.35v-3.658l1.632-5.385h-1.376l-.918 3.55-.958-3.55h-1.43q.378 1.134.877 2.524a22.876 22.876 0 0 1 .823 2.861"/><path d="m9.137 4.251q0-.931.58-.931t.58.931v2.834q0 .945-.58.945t-.58-.945zm.58 4.885a1.66 1.66 0 0 0 1.43-.688 2.659 2.659 0 0 0 .379-1.592v-2.362a2.634 2.634 0 0 0 -.378-1.582 1.66 1.66 0 0 0 -1.431-.686 1.669 1.669 0 0 0 -1.417.686 2.633 2.633 0 0 0 -.378 1.579v2.365a2.7 2.7 0 0 0 .378 1.592 1.669 1.669 0 0 0 1.417.688"/><path d="m13.429 9.137a1.942 1.942 0 0 0 1.39-.837v.742h1.228v-6.734h-1.228v5.142q-.405.58-.77.58-.243 0-.283-.3a3.524 3.524 0 0 1 -.014-.472v-4.95h-1.223v5.317a3.468 3.468 0 0 0 .1 1.013.75.75 0 0 0 .8.5"/></g></svg>